<svg width="42" height="42" viewBox="0 0 42 42" fill="none" xmlns="http://www.w3.org/2000/svg">
<path d="M20.9992 41.2859C32.3604 41.2859 41.5706 32.0758 41.5706 20.7145C41.5706 9.35321 32.3604 0.143066 20.9992 0.143066C9.63788 0.143066 0.427734 9.35321 0.427734 20.7145C0.427734 32.0758 9.63788 41.2859 20.9992 41.2859Z" fill="#E0653B"/>
<path d="M30.2409 18.1689C30.6446 15.474 28.5914 14.025 25.7859 13.0581L26.6962 9.40671L24.4745 8.85385L23.5874 12.4089C23.0036 12.2623 22.4045 12.126 21.8066 11.9897L22.7002 8.41157L20.4785 7.85742L19.5682 11.5076C19.0848 11.397 18.6091 11.289 18.1488 11.1733L18.1514 11.1617L15.0862 10.3967L14.4948 12.7701C14.4948 12.7701 16.1443 13.1481 16.1096 13.1713C17.0096 13.3963 17.1716 13.9916 17.1446 14.4647L16.1083 18.624C16.1701 18.6394 16.2498 18.6626 16.3398 18.6973L16.1045 18.6394L14.6516 24.4663C14.5411 24.7388 14.2621 25.149 13.6321 24.9934C13.6552 25.0256 12.0172 24.591 12.0172 24.591L10.9141 27.1341L13.8069 27.8554C14.3443 27.9904 14.8715 28.1318 15.3896 28.2643L14.4703 31.9568L16.6908 32.5097L17.6011 28.8583C18.2079 29.0216 18.7968 29.1733 19.3728 29.3173L18.4651 32.9533L20.6868 33.5061L21.6061 29.8213C25.3964 30.5387 28.2455 30.2494 29.4451 26.8217C30.4119 24.0626 29.3975 22.4696 27.4034 21.432C28.8562 21.0977 29.9491 20.1424 30.2409 18.1689V18.1689ZM25.1624 25.2891C24.4771 28.0496 19.8292 26.5569 18.3223 26.1827L19.5438 21.2906C21.0506 21.6673 25.8811 22.4117 25.1624 25.2891ZM25.8502 18.129C25.2241 20.64 21.3566 19.3633 20.1031 19.0509L21.2088 14.6151C22.4624 14.9276 26.5034 15.51 25.8502 18.129Z" fill="white"/>
</svg>
