<svg width="18" height="18" viewBox="0 0 18 18" fill="none" xmlns="http://www.w3.org/2000/svg">
<g clip-path="url(#clip0_3451_2987)">
<path d="M14.5216 3.67095C13.4119 3.15175 12.2254 2.77443 10.9849 2.55957C10.8326 2.83501 10.6546 3.20547 10.5319 3.50018C9.21321 3.30187 7.90667 3.30187 6.61226 3.50018C6.48957 3.20547 6.30754 2.83501 6.15383 2.55957C4.912 2.77443 3.72411 3.15314 2.61442 3.6737C0.376173 7.05599 -0.230579 10.3543 0.0727976 13.6057C1.55732 14.7143 2.99601 15.3878 4.41041 15.8284C4.75963 15.3478 5.0711 14.8369 5.33941 14.2984C4.82839 14.1043 4.33895 13.8646 3.87648 13.5864C3.99917 13.4955 4.11918 13.4005 4.23513 13.3027C7.05585 14.6221 10.1206 14.6221 12.9077 13.3027C13.025 13.4005 13.145 13.4955 13.2663 13.5864C12.8025 13.866 12.3117 14.1056 11.8007 14.2998C12.069 14.8369 12.3791 15.3492 12.7297 15.8298C14.1455 15.3891 15.5855 14.7157 17.07 13.6057C17.426 9.83646 16.4619 6.56847 14.5216 3.67095ZM5.7237 11.6061C4.87694 11.6061 4.18254 10.8156 4.18254 9.85298C4.18254 8.89035 4.86212 8.09849 5.7237 8.09849C6.5853 8.09849 7.27968 8.88896 7.26486 9.85298C7.2662 10.8156 6.5853 11.6061 5.7237 11.6061ZM11.4191 11.6061C10.5723 11.6061 9.87794 10.8156 9.87794 9.85298C9.87794 8.89035 10.5575 8.09849 11.4191 8.09849C12.2807 8.09849 12.9751 8.88896 12.9603 9.85298C12.9603 10.8156 12.2807 11.6061 11.4191 11.6061Z" fill="black"/>
</g>
<defs>
<clipPath id="clip0_3451_2987">
<rect width="17.1429" height="17.1429" fill="white" transform="translate(0.00195312 0.651367)"/>
</clipPath>
</defs>
</svg>
