<svg width="22" height="22" viewBox="0 0 22 22" fill="none" xmlns="http://www.w3.org/2000/svg">
<path d="M7.68008 18.3922C14.1475 18.3922 17.6859 12.9954 17.6859 8.31678C17.6859 8.16506 17.6825 8.00997 17.6758 7.85826C18.3642 7.35701 18.9582 6.73614 19.43 6.02483C18.7889 6.31203 18.1083 6.4996 17.4113 6.58113C18.1452 6.13819 18.6946 5.44236 18.9579 4.62262C18.2675 5.03461 17.5125 5.32522 16.7253 5.48202C16.1949 4.91449 15.4935 4.53872 14.7297 4.41281C13.966 4.28689 13.1822 4.41784 12.4998 4.78541C11.8173 5.15299 11.2741 5.73671 10.9541 6.44633C10.6342 7.15595 10.5553 7.95194 10.7296 8.71125C9.33175 8.64061 7.96421 8.27495 6.71567 7.63798C5.46713 7.001 4.36546 6.10693 3.48209 5.01372C3.03311 5.79319 2.89572 6.71557 3.09785 7.59338C3.29997 8.47119 3.82644 9.23857 4.57026 9.73956C4.01184 9.7217 3.46566 9.57031 2.97684 9.29789V9.34172C2.97634 10.1597 3.25718 10.9527 3.77162 11.5857C4.28605 12.2188 5.00234 12.6529 5.79872 12.8144C5.28143 12.9569 4.73853 12.9776 4.212 12.8751C4.43672 13.5785 4.87395 14.1938 5.46266 14.6351C6.05137 15.0763 6.7622 15.3214 7.49593 15.3363C6.25027 16.3215 4.71152 16.856 3.12751 16.8534C2.8466 16.853 2.56597 16.8357 2.28711 16.8015C3.89629 17.8411 5.7682 18.3932 7.68008 18.3922Z" fill="black"/>
</svg>
