<svg width="17" height="16" viewBox="0 0 17 16" fill="none" xmlns="http://www.w3.org/2000/svg">
<g clip-path="url(#clip0_3451_2927)">
<path d="M14.8679 12.5314C14.6346 13.0704 14.3584 13.5666 14.0384 14.0227C13.6023 14.6446 13.2451 15.0751 12.9699 15.3141C12.5432 15.7065 12.0861 15.9074 11.5966 15.9189C11.2452 15.9189 10.8214 15.8189 10.3281 15.616C9.83314 15.4141 9.3783 15.3141 8.96241 15.3141C8.52623 15.3141 8.05844 15.4141 7.55807 15.616C7.05694 15.8189 6.65324 15.9246 6.34459 15.9351C5.87517 15.9551 5.40728 15.7484 4.94025 15.3141C4.64217 15.0541 4.26932 14.6084 3.82267 13.977C3.34345 13.3028 2.94946 12.5209 2.6408 11.6295C2.31024 10.6667 2.14453 9.7343 2.14453 8.83166C2.14453 7.79769 2.36795 6.90591 2.81546 6.1586C3.16717 5.55833 3.63505 5.08482 4.22065 4.73721C4.80626 4.3896 5.439 4.21247 6.1204 4.20113C6.49325 4.20113 6.98219 4.31646 7.58979 4.54312C8.19567 4.77054 8.58471 4.88587 8.75527 4.88587C8.88279 4.88587 9.31497 4.75102 10.0476 4.48217C10.7404 4.23285 11.3252 4.12961 11.8042 4.17028C13.1023 4.27503 14.0775 4.78673 14.726 5.70861C13.5651 6.41202 12.9908 7.39723 13.0023 8.66109C13.0128 9.64554 13.3699 10.4648 14.0718 11.1152C14.3899 11.4171 14.7451 11.6504 15.1403 11.8161C15.0546 12.0647 14.9641 12.3028 14.8679 12.5314V12.5314ZM11.8909 0.816472C11.8909 1.58808 11.609 2.30852 11.0471 2.97536C10.369 3.7681 9.54887 4.22618 8.65946 4.1539C8.64813 4.06133 8.64156 3.9639 8.64156 3.86152C8.64156 3.12078 8.96403 2.32805 9.53667 1.67987C9.82257 1.35169 10.1862 1.07882 10.6271 0.861137C11.0671 0.646705 11.4833 0.52812 11.8747 0.507812C11.8861 0.610964 11.8909 0.714122 11.8909 0.816462V0.816472Z" fill="black"/>
</g>
<defs>
<clipPath id="clip0_3451_2927">
<rect width="15.4286" height="15.4286" fill="white" transform="translate(0.859375 0.507812)"/>
</clipPath>
</defs>
</svg>
