<svg width="21" height="22" viewBox="0 0 21 22" fill="none" xmlns="http://www.w3.org/2000/svg">
<path d="M18.8295 7.82422C18.8295 7.82422 18.6621 6.6423 18.1465 6.12333C17.4936 5.44029 16.7637 5.43694 16.4289 5.39676C14.0315 5.22266 10.4322 5.22266 10.4322 5.22266H10.4255C10.4255 5.22266 6.82617 5.22266 4.42885 5.39676C4.09403 5.43694 3.36412 5.44029 2.71122 6.12333C2.19559 6.6423 2.03153 7.82422 2.03153 7.82422C2.03153 7.82422 1.85742 9.21373 1.85742 10.5999V11.899C1.85742 13.2852 2.02818 14.6747 2.02818 14.6747C2.02818 14.6747 2.19559 15.8566 2.70787 16.3756C3.36077 17.0586 4.21791 17.0352 4.59961 17.1088C5.97238 17.2394 10.4288 17.2796 10.4288 17.2796C10.4288 17.2796 14.0315 17.2729 16.4289 17.1021C16.7637 17.0619 17.4936 17.0586 18.1465 16.3756C18.6621 15.8566 18.8295 14.6747 18.8295 14.6747C18.8295 14.6747 19.0003 13.2885 19.0003 11.899V10.5999C19.0003 9.21373 18.8295 7.82422 18.8295 7.82422ZM8.65765 13.476V8.65792L13.2882 11.0753L8.65765 13.476Z" fill="black"/>
</svg>
