<svg width="21" height="22" viewBox="0 0 21 22" fill="none" xmlns="http://www.w3.org/2000/svg">
<path d="M10.2852 2.65137C15.0188 2.65159 18.8564 6.4899 18.8564 11.2236C18.8562 15.9572 15.0187 19.7947 10.2852 19.7949C5.55143 19.7949 1.71312 15.9573 1.71289 11.2236C1.71289 6.48976 5.55129 2.65137 10.2852 2.65137ZM13.7891 7.8125C13.4667 7.81818 12.9712 7.99039 10.5908 8.98047C9.75697 9.32731 8.09082 10.0445 5.59277 11.1328C5.18727 11.2941 4.97466 11.4522 4.95508 11.6064C4.91794 11.9027 5.34421 11.9955 5.88086 12.1699C6.3185 12.3122 6.90782 12.4787 7.21387 12.4854C7.49141 12.4913 7.80158 12.3764 8.14355 12.1416C10.478 10.5658 11.6831 9.76913 11.7588 9.75195C11.8122 9.73984 11.8865 9.72503 11.9365 9.76953C11.9862 9.81416 11.9809 9.89832 11.9756 9.9209C11.9317 10.103 9.74153 12.0955 9.61426 12.2275C9.13197 12.7285 8.58342 13.0351 9.42969 13.5928C10.1619 14.0753 10.5884 14.3834 11.3428 14.8779C11.8247 15.1939 12.2026 15.5682 12.7002 15.5225C12.9292 15.5014 13.166 15.2859 13.2861 14.6436C13.5701 13.1254 14.1279 9.83668 14.2568 8.48145C14.2681 8.36301 14.2546 8.21151 14.2432 8.14453C14.2318 8.07788 14.2076 7.98245 14.1211 7.91211C14.0186 7.82893 13.8602 7.81132 13.7891 7.8125Z" fill="black"/>
</svg>
