<svg width="15" height="16" viewBox="0 0 15 16" fill="none" xmlns="http://www.w3.org/2000/svg">
<path d="M1.9209 15.9941C1.87277 15.9995 1.82598 16.002 1.78027 16.001C1.82598 16.002 1.87277 15.9995 1.9209 15.9941ZM1.46289 15.9346C1.54609 15.9699 1.63632 15.9912 1.7334 15.998C1.68567 15.9947 1.63928 15.9898 1.59473 15.9795C1.54869 15.9688 1.50517 15.9525 1.46289 15.9346ZM2.08691 15.9639C2.04245 15.975 1.99889 15.9832 1.95605 15.9893C1.99889 15.9832 2.04245 15.975 2.08691 15.9639ZM2.2832 15.8994C2.22841 15.9213 2.17495 15.9404 2.12207 15.9551C2.17495 15.9404 2.22841 15.9213 2.2832 15.8994ZM1.43945 15.9248C1.40605 15.9093 1.37447 15.8911 1.34375 15.8711C1.37447 15.8911 1.40605 15.9093 1.43945 15.9248ZM2.50098 15.7979C2.4432 15.8299 2.38532 15.8565 2.3291 15.8809C2.38532 15.8565 2.4432 15.8299 2.50098 15.7979ZM1.31055 15.8496C1.27742 15.8255 1.24526 15.7991 1.21582 15.7695C1.21263 15.7663 1.2092 15.763 1.20605 15.7598C1.2383 15.7933 1.27373 15.8228 1.31055 15.8496ZM1.20703 15.7578C1.19451 15.7448 1.18172 15.7317 1.16992 15.7178C1.16528 15.7123 1.16176 15.7058 1.15723 15.7002C1.1733 15.7202 1.18955 15.7397 1.20703 15.7578ZM1.01953 15.4639C1.05639 15.5533 1.10256 15.6321 1.15723 15.7002C1.10256 15.6321 1.05639 15.5533 1.01953 15.4639ZM1.01953 15.4639C1.01639 15.4562 1.01179 15.4492 1.00879 15.4414C1.00635 15.4351 1.0043 15.4283 1.00195 15.4219C1.00722 15.4363 1.0138 15.45 1.01953 15.4639ZM1.00195 15.4219C0.992297 15.3955 0.984621 15.3679 0.976562 15.3398C0.984621 15.3679 0.992297 15.3955 1.00195 15.4219ZM0.917969 14.9014C0.917978 14.9694 0.922944 15.0344 0.929688 15.0967C0.922944 15.0344 0.917978 14.9694 0.917969 14.9014ZM8.44922 8.15527L1.36035 15.0967C1.35174 15.0386 1.34669 14.9737 1.34668 14.9014V1.40918C1.3467 1.33663 1.35166 1.27108 1.36035 1.21289L8.44922 8.15527ZM14.4414 7.65039C14.8006 7.85036 14.874 8.05185 14.874 8.15723C14.8738 8.26276 14.7999 8.46317 14.4414 8.66309L11.6152 10.2363L9.49219 8.15625L11.6152 6.07812L14.4414 7.65039ZM1.20605 0.553711C1.20925 0.550392 1.21258 0.5472 1.21582 0.543945C1.2465 0.513153 1.27978 0.485824 1.31445 0.460938C1.2761 0.488462 1.2395 0.518973 1.20605 0.553711ZM2.05273 0.783203C2.12489 0.807163 2.20451 0.841971 2.29199 0.890625L10.8906 5.6748L8.96973 7.55664L2.05273 0.783203ZM0.927734 1.23145C0.926688 1.24214 0.924683 1.25281 0.923828 1.26367C0.924683 1.25281 0.926688 1.24214 0.927734 1.23145ZM1.01562 0.854492C1.03358 0.809962 1.05371 0.767919 1.07617 0.728516C1.05371 0.767919 1.03358 0.809962 1.01562 0.854492ZM1.16406 0.602539C1.16779 0.598003 1.171 0.592326 1.1748 0.587891C1.18523 0.575757 1.19605 0.564112 1.20703 0.552734C1.19192 0.568401 1.17813 0.58544 1.16406 0.602539ZM2.31641 0.426758C2.37681 0.45242 2.43875 0.481971 2.50098 0.516602C2.43875 0.481971 2.37681 0.45242 2.31641 0.426758ZM1.33984 0.444336C1.36886 0.425205 1.39922 0.408626 1.43066 0.393555C1.39922 0.408626 1.36886 0.425205 1.33984 0.444336ZM2.11133 0.354492C2.17046 0.370429 2.23046 0.391943 2.29199 0.416992C2.23046 0.391943 2.17046 0.370429 2.11133 0.354492ZM1.61621 0.331055C1.65789 0.322469 1.70075 0.316086 1.74512 0.313477C1.70075 0.316086 1.65789 0.322469 1.61621 0.331055ZM1.77148 0.3125C1.82021 0.310964 1.87036 0.312623 1.92188 0.318359C1.87036 0.312623 1.82021 0.310964 1.77148 0.3125ZM1.95312 0.323242C2.00462 0.330397 2.05751 0.339988 2.11133 0.354492C2.05751 0.339988 2.00462 0.330397 1.95312 0.323242ZM1.46973 0.375C1.50061 0.362256 1.53254 0.351708 1.56543 0.342773C1.53254 0.351708 1.50061 0.362256 1.46973 0.375Z" fill="black"/>
</svg>
