<svg width="22" height="22" viewBox="0 0 22 22" fill="none" xmlns="http://www.w3.org/2000/svg">
<path d="M11.1434 4.19617C13.434 4.19617 13.7053 4.20622 14.6061 4.2464C15.4434 4.28324 15.8955 4.4239 16.1969 4.54111C16.5954 4.69515 16.8834 4.88269 17.1814 5.18074C17.4828 5.48214 17.667 5.76679 17.8211 6.16531C17.9383 6.46671 18.0789 6.92215 18.1158 7.75602C18.1559 8.66021 18.166 8.93147 18.166 11.2187C18.166 13.5094 18.1559 13.7806 18.1158 14.6815C18.0789 15.5187 17.9383 15.9708 17.8211 16.2722C17.667 16.6707 17.4795 16.9587 17.1814 17.2568C16.88 17.5582 16.5954 17.7423 16.1969 17.8964C15.8955 18.0136 15.44 18.1543 14.6061 18.1911C13.702 18.2313 13.4307 18.2413 11.1434 18.2413C8.85279 18.2413 8.58153 18.2313 7.68069 18.1911C6.84347 18.1543 6.39137 18.0136 6.08997 17.8964C5.69146 17.7423 5.40346 17.5548 5.10541 17.2568C4.80401 16.9554 4.61982 16.6707 4.46577 16.2722C4.34856 15.9708 4.20791 15.5153 4.17107 14.6815C4.13089 13.7773 4.12084 13.506 4.12084 11.2187C4.12084 8.92812 4.13089 8.65686 4.17107 7.75602C4.20791 6.9188 4.34856 6.46671 4.46577 6.16531C4.61982 5.76679 4.80736 5.47879 5.10541 5.18074C5.4068 4.87934 5.69146 4.69515 6.08997 4.54111C6.39137 4.4239 6.84682 4.28324 7.68069 4.2464C8.58153 4.20622 8.85279 4.19617 11.1434 4.19617ZM11.1434 2.65234C8.81595 2.65234 8.5246 2.66239 7.61036 2.70258C6.69947 2.74276 6.07323 2.89011 5.53071 3.10109C4.96475 3.32212 4.48587 3.61347 4.01033 4.09236C3.53144 4.5679 3.24009 5.04678 3.01906 5.60939C2.80808 6.15526 2.66073 6.77815 2.62055 7.68904C2.58036 8.60663 2.57031 8.89798 2.57031 11.2254C2.57031 13.5529 2.58036 13.8443 2.62055 14.7585C2.66073 15.6694 2.80808 16.2956 3.01906 16.8382C3.24009 17.4041 3.53144 17.883 4.01033 18.3585C4.48587 18.8341 4.96475 19.1288 5.52736 19.3465C6.07323 19.5574 6.69612 19.7048 7.60701 19.745C8.52125 19.7852 8.8126 19.7952 11.1401 19.7952C13.4675 19.7952 13.7589 19.7852 14.6731 19.745C15.584 19.7048 16.2103 19.5574 16.7528 19.3465C17.3154 19.1288 17.7943 18.8341 18.2698 18.3585C18.7453 17.883 19.04 17.4041 19.2577 16.8415C19.4687 16.2956 19.6161 15.6727 19.6562 14.7619C19.6964 13.8476 19.7065 13.5563 19.7065 11.2288C19.7065 8.90133 19.6964 8.60998 19.6562 7.69574C19.6161 6.78485 19.4687 6.15861 19.2577 5.61609C19.0467 5.04678 18.7554 4.5679 18.2765 4.09236C17.801 3.61682 17.3221 3.32212 16.7595 3.10444C16.2136 2.89346 15.5907 2.74611 14.6798 2.70593C13.7622 2.66239 13.4709 2.65234 11.1434 2.65234Z" fill="black"/>
<path d="M11.144 6.82129C8.71272 6.82129 6.74023 8.79377 6.74023 11.2251C6.74023 13.6563 8.71272 15.6288 11.144 15.6288C13.5753 15.6288 15.5478 13.6563 15.5478 11.2251C15.5478 8.79377 13.5753 6.82129 11.144 6.82129ZM11.144 14.0816C9.56668 14.0816 8.28741 12.8024 8.28741 11.2251C8.28741 9.64773 9.56668 8.36847 11.144 8.36847C12.7213 8.36847 14.0006 9.64773 14.0006 11.2251C14.0006 12.8024 12.7213 14.0816 11.144 14.0816Z" fill="black"/>
<path d="M16.7496 6.64822C16.7496 7.21753 16.2874 7.67633 15.7215 7.67633C15.1522 7.67633 14.6934 7.21418 14.6934 6.64822C14.6934 6.07891 15.1555 5.62012 15.7215 5.62012C16.2874 5.62012 16.7496 6.08226 16.7496 6.64822Z" fill="black"/>
</svg>
