<svg width="323" height="105" viewBox="0 0 323 105" fill="none" xmlns="http://www.w3.org/2000/svg">
<path d="M116.424 97.2856H113.832V95.7222C113.489 96.2434 113.029 96.6616 112.453 96.9771C111.891 97.2925 111.253 97.4502 110.54 97.4502C109.402 97.4502 108.483 97.1074 107.784 96.4216C107.098 95.7359 106.755 94.8308 106.755 93.7062V86.9176H109.347V93.0891C109.347 93.7062 109.525 94.2068 109.882 94.5908C110.239 94.9611 110.719 95.1462 111.322 95.1462C112.117 95.1462 112.735 94.8239 113.173 94.1794C113.612 93.5348 113.832 92.6296 113.832 91.4639V86.9176H116.424V97.2856ZM118.586 82.7211H121.178V97.2856H118.586V82.7211ZM129.497 97.1828C129.003 97.3611 128.448 97.4502 127.831 97.4502C126.734 97.4502 125.849 97.1485 125.177 96.5451C124.505 95.9416 124.169 95.0571 124.169 93.8914V89.0982H122.42V86.9176H124.169V83.8731H126.761V86.9176H129.374V89.0982H126.761V93.6445C126.761 94.1245 126.878 94.5016 127.111 94.7759C127.358 95.0365 127.687 95.1668 128.098 95.1668C128.578 95.1668 128.983 95.0845 129.312 94.9199L129.497 97.1828ZM130.939 86.9176H133.531V97.2856H130.939V86.9176ZM132.235 85.3336C131.768 85.3336 131.384 85.1828 131.083 84.8811C130.781 84.5656 130.63 84.1816 130.63 83.7291C130.63 83.2765 130.781 82.8994 131.083 82.5976C131.398 82.2959 131.782 82.1451 132.235 82.1451C132.701 82.1451 133.092 82.3028 133.407 82.6182C133.723 82.9199 133.88 83.2902 133.88 83.7291C133.88 84.1816 133.723 84.5656 133.407 84.8811C133.092 85.1828 132.701 85.3336 132.235 85.3336ZM135.698 86.9176H138.29V88.5016C138.592 87.9531 138.99 87.5279 139.484 87.2262C139.991 86.9108 140.588 86.7531 141.273 86.7531C142.096 86.7531 142.782 86.9245 143.33 87.2674C143.879 87.5965 144.27 88.0765 144.503 88.7074C144.805 88.1451 145.257 87.6788 145.861 87.3085C146.464 86.9382 147.157 86.7531 147.938 86.7531C149.049 86.7531 149.941 87.0822 150.613 87.7405C151.298 88.3851 151.641 89.2216 151.641 90.2502V97.2856H149.049V90.9702C149.049 90.3394 148.885 89.8456 148.556 89.4891C148.226 89.1325 147.76 88.9542 147.157 88.9542C146.471 88.9542 145.929 89.2285 145.532 89.7771C145.148 90.3256 144.956 91.0662 144.956 91.9988V97.2856H142.364V90.9702C142.364 90.3394 142.199 89.8456 141.87 89.4891C141.554 89.1325 141.102 88.9542 140.512 88.9542C139.813 88.9542 139.264 89.2354 138.866 89.7976C138.482 90.3462 138.29 91.0868 138.29 92.0194V97.2856H135.698V86.9176ZM153.818 86.9176H156.41V97.2856H153.818V86.9176ZM155.114 85.3336C154.647 85.3336 154.263 85.1828 153.962 84.8811C153.66 84.5656 153.509 84.1816 153.509 83.7291C153.509 83.2765 153.66 82.8994 153.962 82.5976C154.277 82.2959 154.661 82.1451 155.114 82.1451C155.58 82.1451 155.971 82.3028 156.286 82.6182C156.602 82.9199 156.759 83.2902 156.759 83.7291C156.759 84.1816 156.602 84.5656 156.286 84.8811C155.971 85.1828 155.58 85.3336 155.114 85.3336ZM167.908 97.4502C166.495 97.4502 165.302 97.0868 164.329 96.3599C163.355 95.6331 162.772 94.6662 162.58 93.4594L165.11 92.9862C165.247 93.6171 165.556 94.1176 166.036 94.4879C166.516 94.8445 167.106 95.0228 167.805 95.0228C168.559 95.0228 169.17 94.7896 169.636 94.3234C170.102 93.8571 170.335 93.2399 170.335 92.4719C170.335 91.6765 170.089 91.0525 169.595 90.5999C169.115 90.1336 168.463 89.9005 167.641 89.9005C166.502 89.9005 165.604 90.3874 164.946 91.3611L162.93 90.9291L164.123 82.8856H172.063V85.2925H166.159L165.625 88.7279C165.967 88.4262 166.379 88.1794 166.859 87.9874C167.353 87.7954 167.846 87.6994 168.34 87.6994C169.273 87.6994 170.102 87.8982 170.829 88.2959C171.556 88.6936 172.118 89.2559 172.516 89.9828C172.927 90.7096 173.133 91.5394 173.133 92.4719C173.133 93.4594 172.914 94.3302 172.475 95.0845C172.05 95.8388 171.439 96.4216 170.644 96.8331C169.862 97.2445 168.95 97.4502 167.908 97.4502ZM185.434 90.6205C185.434 90.0308 185.249 89.5714 184.878 89.2422C184.508 88.8994 184.008 88.7279 183.377 88.7279C182.814 88.7279 182.341 88.8925 181.957 89.2216C181.587 89.5508 181.374 89.9896 181.32 90.5382L179.016 90.1268C179.18 89.1119 179.667 88.2959 180.476 87.6788C181.299 87.0616 182.266 86.7531 183.377 86.7531C184.762 86.7531 185.866 87.1234 186.689 87.8639C187.525 88.5908 187.944 89.6262 187.944 90.9702V97.2856H185.434V95.7839C185.146 96.2914 184.714 96.6959 184.138 96.9976C183.576 97.2994 182.972 97.4502 182.328 97.4502C181.656 97.4502 181.059 97.3199 180.538 97.0594C180.017 96.7851 179.605 96.4148 179.304 95.9485C179.016 95.4822 178.872 94.9542 178.872 94.3645C178.872 93.3496 179.256 92.5611 180.024 91.9988C180.792 91.4365 181.95 91.0731 183.5 90.9085L185.434 90.7234V90.6205ZM181.381 94.2822C181.381 94.6525 181.518 94.9542 181.793 95.1874C182.067 95.4205 182.437 95.5371 182.904 95.5371C183.685 95.5371 184.302 95.2765 184.755 94.7554C185.208 94.2342 185.434 93.5828 185.434 92.8011V92.5748L183.459 92.8011C182.787 92.8834 182.273 93.0548 181.916 93.3154C181.56 93.5759 181.381 93.8982 181.381 94.2822ZM190.132 86.9176H192.724V88.4811C193.067 87.9599 193.52 87.5416 194.082 87.2262C194.658 86.9108 195.303 86.7531 196.016 86.7531C197.154 86.7531 198.066 87.0959 198.752 87.7816C199.451 88.4674 199.801 89.3725 199.801 90.4971V97.2856H197.209V91.1142C197.209 90.4971 197.031 90.0034 196.674 89.6331C196.317 89.2491 195.837 89.0571 195.234 89.0571C194.439 89.0571 193.821 89.3794 193.383 90.0239C192.944 90.6685 192.724 91.5736 192.724 92.7394V97.2856H190.132V86.9176ZM201.964 86.9176H204.556V88.4811C204.898 87.9599 205.351 87.5416 205.913 87.2262C206.489 86.9108 207.134 86.7531 207.847 86.7531C208.985 86.7531 209.897 87.0959 210.583 87.7816C211.282 88.4674 211.632 89.3725 211.632 90.4971V97.2856H209.04V91.1142C209.04 90.4971 208.862 90.0034 208.505 89.6331C208.149 89.2491 207.669 89.0571 207.065 89.0571C206.27 89.0571 205.653 89.3794 205.214 90.0239C204.775 90.6685 204.556 91.5736 204.556 92.7394V97.2856H201.964V86.9176ZM213.795 86.9176H216.387V97.2856H213.795V86.9176ZM215.091 85.3336C214.625 85.3336 214.241 85.1828 213.939 84.8811C213.637 84.5656 213.486 84.1816 213.486 83.7291C213.486 83.2765 213.637 82.8994 213.939 82.5976C214.254 82.2959 214.638 82.1451 215.091 82.1451C215.557 82.1451 215.948 82.3028 216.263 82.6182C216.579 82.9199 216.737 83.2902 216.737 83.7291C216.737 84.1816 216.579 84.5656 216.263 84.8811C215.948 85.1828 215.557 85.3336 215.091 85.3336Z" fill="#212328"/>
<path d="M116.612 36.7038H106.464V46.8524H99.6066V36.6489H89.4032V29.8466H99.6066V19.6432H106.409V29.8466H116.612V36.7038ZM127.81 21.6729C125.103 23.6844 122.214 25.0009 119.142 25.6226V17.8878C120.824 17.4855 122.562 16.8089 124.354 15.8581C126.146 14.8706 127.791 13.7369 129.291 12.4569H135.819V50.8569H127.81V21.6729ZM148.767 21.6729C146.06 23.6844 143.171 25.0009 140.099 25.6226V17.8878C141.782 17.4855 143.519 16.8089 145.311 15.8581C147.103 14.8706 148.748 13.7369 150.248 12.4569H156.776V50.8569H148.767V21.6729ZM177.733 24.9095C180.33 24.9095 182.634 25.4764 184.645 26.6101C186.693 27.7438 188.284 29.3164 189.418 31.3278C190.588 33.3026 191.173 35.5518 191.173 38.0752C191.173 40.5986 190.533 42.8661 189.253 44.8775C187.973 46.8889 186.199 48.4615 183.932 49.5952C181.701 50.7289 179.159 51.2958 176.307 51.2958C173.418 51.2958 170.839 50.5278 168.572 48.9918C166.304 47.4558 164.531 45.3164 163.251 42.5735C161.971 39.8306 161.331 36.7038 161.331 33.1929C161.331 28.5849 162.172 24.6901 163.854 21.5084C165.573 18.3266 167.822 15.9495 170.602 14.3769C173.381 12.8044 176.398 12.0181 179.653 12.0181C181.811 12.0181 183.895 12.3838 185.907 13.1152C187.918 13.8101 189.692 14.8158 191.228 16.1324L187.388 22.2764C186.4 21.4352 185.267 20.7586 183.987 20.2466C182.707 19.6981 181.354 19.4238 179.927 19.4238C177.038 19.4238 174.643 20.3015 172.741 22.0569C170.839 23.7758 169.742 26.0432 169.45 28.8592C170.364 27.5792 171.534 26.6101 172.96 25.9518C174.387 25.2569 175.978 24.9095 177.733 24.9095ZM170.272 37.5815C170.272 39.4101 170.858 40.9095 172.028 42.0798C173.198 43.2501 174.698 43.8352 176.526 43.8352C178.355 43.8352 179.836 43.2501 180.97 42.0798C182.14 40.8729 182.725 39.3369 182.725 37.4718C182.725 35.7164 182.14 34.2718 180.97 33.1381C179.799 32.0044 178.318 31.4375 176.526 31.4375C174.698 31.4375 173.198 32.0226 172.028 33.1929C170.858 34.3266 170.272 35.7895 170.272 37.5815ZM223.895 12.4569H230.259L204.586 50.8569H198.222L223.895 12.4569ZM225.376 51.2958C222.634 51.2958 220.439 50.4181 218.794 48.6626C217.184 46.9072 216.38 44.5666 216.38 41.6409C216.38 38.7152 217.184 36.3746 218.794 34.6192C220.439 32.8638 222.634 31.9861 225.376 31.9861C228.083 31.9861 230.24 32.8638 231.85 34.6192C233.495 36.3746 234.318 38.7152 234.318 41.6409C234.318 44.5666 233.495 46.9072 231.85 48.6626C230.24 50.4181 228.083 51.2958 225.376 51.2958ZM222.304 41.6409C222.304 43.0306 222.56 44.1095 223.072 44.8775C223.621 45.6089 224.389 45.9746 225.376 45.9746C226.327 45.9746 227.059 45.6089 227.571 44.8775C228.083 44.1095 228.339 43.0306 228.339 41.6409C228.339 40.2512 228.083 39.1906 227.571 38.4592C227.059 37.6912 226.327 37.3072 225.376 37.3072C224.389 37.3072 223.621 37.6912 223.072 38.4592C222.56 39.1906 222.304 40.2512 222.304 41.6409ZM203.269 31.3278C200.526 31.3278 198.332 30.4501 196.686 28.6946C195.077 26.9392 194.272 24.5986 194.272 21.6729C194.272 18.7472 195.077 16.4066 196.686 14.6512C198.332 12.8958 200.526 12.0181 203.269 12.0181C205.975 12.0181 208.133 12.8958 209.742 14.6512C211.388 16.4066 212.211 18.7472 212.211 21.6729C212.211 24.5986 211.388 26.9392 209.742 28.6946C208.133 30.4501 205.975 31.3278 203.269 31.3278ZM200.197 21.6729C200.197 23.0626 200.453 24.1415 200.965 24.9095C201.514 25.6409 202.282 26.0066 203.269 26.0066C204.22 26.0066 204.951 25.6409 205.463 24.9095C205.975 24.1415 206.231 23.0626 206.231 21.6729C206.231 20.2832 205.975 19.2226 205.463 18.4912C204.951 17.7232 204.22 17.3392 203.269 17.3392C202.282 17.3392 201.514 17.7232 200.965 18.4912C200.453 19.2226 200.197 20.2832 200.197 21.6729Z" fill="white"/>
</svg>
