<svg width="322" height="105" viewBox="0 0 322 105" fill="none" xmlns="http://www.w3.org/2000/svg">
<path d="M115.853 97.2856H113.261V95.7222C112.918 96.2434 112.458 96.6616 111.882 96.9771C111.32 97.2925 110.682 97.4502 109.969 97.4502C108.831 97.4502 107.912 97.1074 107.213 96.4216C106.527 95.7359 106.184 94.8308 106.184 93.7062V86.9176H108.776V93.0891C108.776 93.7062 108.954 94.2068 109.311 94.5908C109.667 94.9611 110.147 95.1462 110.751 95.1462C111.546 95.1462 112.163 94.8239 112.602 94.1794C113.041 93.5348 113.261 92.6296 113.261 91.4639V86.9176H115.853V97.2856ZM118.015 82.7211H120.607V97.2856H118.015V82.7211ZM128.926 97.1828C128.432 97.3611 127.877 97.4502 127.26 97.4502C126.162 97.4502 125.278 97.1485 124.606 96.5451C123.934 95.9416 123.598 95.0571 123.598 93.8914V89.0982H121.849V86.9176H123.598V83.8731H126.19V86.9176H128.802V89.0982H126.19V93.6445C126.19 94.1245 126.306 94.5016 126.54 94.7759C126.786 95.0365 127.116 95.1668 127.527 95.1668C128.007 95.1668 128.412 95.0845 128.741 94.9199L128.926 97.1828ZM130.367 86.9176H132.959V97.2856H130.367V86.9176ZM131.663 85.3336C131.197 85.3336 130.813 85.1828 130.511 84.8811C130.21 84.5656 130.059 84.1816 130.059 83.7291C130.059 83.2765 130.21 82.8994 130.511 82.5976C130.827 82.2959 131.211 82.1451 131.663 82.1451C132.13 82.1451 132.521 82.3028 132.836 82.6182C133.151 82.9199 133.309 83.2902 133.309 83.7291C133.309 84.1816 133.151 84.5656 132.836 84.8811C132.521 85.1828 132.13 85.3336 131.663 85.3336ZM135.127 86.9176H137.719V88.5016C138.021 87.9531 138.419 87.5279 138.912 87.2262C139.42 86.9108 140.016 86.7531 140.702 86.7531C141.525 86.7531 142.211 86.9245 142.759 87.2674C143.308 87.5965 143.699 88.0765 143.932 88.7074C144.234 88.1451 144.686 87.6788 145.29 87.3085C145.893 86.9382 146.586 86.7531 147.367 86.7531C148.478 86.7531 149.37 87.0822 150.042 87.7405C150.727 88.3851 151.07 89.2216 151.07 90.2502V97.2856H148.478V90.9702C148.478 90.3394 148.314 89.8456 147.984 89.4891C147.655 89.1325 147.189 88.9542 146.586 88.9542C145.9 88.9542 145.358 89.2285 144.96 89.7771C144.576 90.3256 144.384 91.0662 144.384 91.9988V97.2856H141.792V90.9702C141.792 90.3394 141.628 89.8456 141.299 89.4891C140.983 89.1325 140.531 88.9542 139.941 88.9542C139.242 88.9542 138.693 89.2354 138.295 89.7976C137.911 90.3462 137.719 91.0868 137.719 92.0194V97.2856H135.127V86.9176ZM153.246 86.9176H155.838V97.2856H153.246V86.9176ZM154.542 85.3336C154.076 85.3336 153.692 85.1828 153.39 84.8811C153.089 84.5656 152.938 84.1816 152.938 83.7291C152.938 83.2765 153.089 82.8994 153.39 82.5976C153.706 82.2959 154.09 82.1451 154.542 82.1451C155.009 82.1451 155.4 82.3028 155.715 82.6182C156.03 82.9199 156.188 83.2902 156.188 83.7291C156.188 84.1816 156.03 84.5656 155.715 84.8811C155.4 85.1828 155.009 85.3336 154.542 85.3336ZM167.337 97.4502C165.924 97.4502 164.731 97.0868 163.757 96.3599C162.784 95.6331 162.201 94.6662 162.009 93.4594L164.539 92.9862C164.676 93.6171 164.985 94.1176 165.465 94.4879C165.945 94.8445 166.535 95.0228 167.234 95.0228C167.988 95.0228 168.599 94.7896 169.065 94.3234C169.531 93.8571 169.764 93.2399 169.764 92.4719C169.764 91.6765 169.517 91.0525 169.024 90.5999C168.544 90.1336 167.892 89.9005 167.069 89.9005C165.931 89.9005 165.033 90.3874 164.375 91.3611L162.359 90.9291L163.552 82.8856H171.492V85.2925H165.588L165.053 88.7279C165.396 88.4262 165.808 88.1794 166.288 87.9874C166.781 87.7954 167.275 87.6994 167.769 87.6994C168.701 87.6994 169.531 87.8982 170.258 88.2959C170.985 88.6936 171.547 89.2559 171.945 89.9828C172.356 90.7096 172.562 91.5394 172.562 92.4719C172.562 93.4594 172.343 94.3302 171.904 95.0845C171.479 95.8388 170.868 96.4216 170.073 96.8331C169.291 97.2445 168.379 97.4502 167.337 97.4502ZM184.863 90.6205C184.863 90.0308 184.678 89.5714 184.307 89.2422C183.937 88.8994 183.436 88.7279 182.806 88.7279C182.243 88.7279 181.77 88.8925 181.386 89.2216C181.016 89.5508 180.803 89.9896 180.748 90.5382L178.444 90.1268C178.609 89.1119 179.096 88.2959 179.905 87.6788C180.728 87.0616 181.695 86.7531 182.806 86.7531C184.191 86.7531 185.295 87.1234 186.118 87.8639C186.954 88.5908 187.372 89.6262 187.372 90.9702V97.2856H184.863V95.7839C184.575 96.2914 184.143 96.6959 183.567 96.9976C183.004 97.2994 182.401 97.4502 181.756 97.4502C181.084 97.4502 180.488 97.3199 179.967 97.0594C179.446 96.7851 179.034 96.4148 178.732 95.9485C178.444 95.4822 178.3 94.9542 178.3 94.3645C178.3 93.3496 178.684 92.5611 179.452 91.9988C180.22 91.4365 181.379 91.0731 182.929 90.9085L184.863 90.7234V90.6205ZM180.81 94.2822C180.81 94.6525 180.947 94.9542 181.222 95.1874C181.496 95.4205 181.866 95.5371 182.332 95.5371C183.114 95.5371 183.731 95.2765 184.184 94.7554C184.636 94.2342 184.863 93.5828 184.863 92.8011V92.5748L182.888 92.8011C182.216 92.8834 181.702 93.0548 181.345 93.3154C180.988 93.5759 180.81 93.8982 180.81 94.2822ZM189.561 86.9176H192.153V88.4811C192.496 87.9599 192.949 87.5416 193.511 87.2262C194.087 86.9108 194.731 86.7531 195.445 86.7531C196.583 86.7531 197.495 87.0959 198.181 87.7816C198.88 88.4674 199.23 89.3725 199.23 90.4971V97.2856H196.638V91.1142C196.638 90.4971 196.459 90.0034 196.103 89.6331C195.746 89.2491 195.266 89.0571 194.663 89.0571C193.867 89.0571 193.25 89.3794 192.811 90.0239C192.373 90.6685 192.153 91.5736 192.153 92.7394V97.2856H189.561V86.9176ZM201.392 86.9176H203.984V88.4811C204.327 87.9599 204.78 87.5416 205.342 87.2262C205.918 86.9108 206.563 86.7531 207.276 86.7531C208.414 86.7531 209.326 87.0959 210.012 87.7816C210.711 88.4674 211.061 89.3725 211.061 90.4971V97.2856H208.469V91.1142C208.469 90.4971 208.291 90.0034 207.934 89.6331C207.578 89.2491 207.098 89.0571 206.494 89.0571C205.699 89.0571 205.082 89.3794 204.643 90.0239C204.204 90.6685 203.984 91.5736 203.984 92.7394V97.2856H201.392V86.9176ZM213.224 86.9176H215.816V97.2856H213.224V86.9176ZM214.52 85.3336C214.053 85.3336 213.669 85.1828 213.368 84.8811C213.066 84.5656 212.915 84.1816 212.915 83.7291C212.915 83.2765 213.066 82.8994 213.368 82.5976C213.683 82.2959 214.067 82.1451 214.52 82.1451C214.986 82.1451 215.377 82.3028 215.692 82.6182C216.008 82.9199 216.165 83.2902 216.165 83.7291C216.165 84.1816 216.008 84.5656 215.692 84.8811C215.377 85.1828 214.986 85.3336 214.52 85.3336Z" fill="#212328"/>
<path d="M122.34 36.7038H112.192V46.8524H105.334V36.6489H95.1309V29.8466H105.334V19.6432H112.137V29.8466H122.34V36.7038ZM139.462 51.2958C136.792 51.2958 134.36 50.8204 132.166 49.8695C130.008 48.9186 128.289 47.5472 127.009 45.7552C125.729 43.9632 125.089 41.8786 125.089 39.5015C125.089 37.3438 125.693 35.4238 126.9 33.7415C128.143 32.0592 129.771 30.8706 131.782 30.1758C130.283 29.4444 129.076 28.3838 128.161 26.9941C127.247 25.6044 126.79 24.0684 126.79 22.3861C126.79 20.4844 127.32 18.7472 128.381 17.1746C129.441 15.5655 130.941 14.3038 132.879 13.3895C134.817 12.4752 137.012 12.0181 139.462 12.0181C141.912 12.0181 144.088 12.4752 145.99 13.3895C147.892 14.3038 149.373 15.5655 150.433 17.1746C151.494 18.7472 152.024 20.4844 152.024 22.3861C152.024 24.0684 151.567 25.6226 150.653 27.0489C149.739 28.4386 148.513 29.4809 146.977 30.1758C149.025 30.8341 150.653 32.0226 151.86 33.7415C153.103 35.4238 153.725 37.3438 153.725 39.5015C153.725 41.8786 153.085 43.9632 151.805 45.7552C150.525 47.5472 148.806 48.9186 146.648 49.8695C144.491 50.8204 142.095 51.2958 139.462 51.2958ZM133.483 39.3369C133.483 40.8364 134.013 42.0432 135.073 42.9575C136.171 43.8718 137.615 44.3289 139.407 44.3289C141.199 44.3289 142.625 43.8718 143.686 42.9575C144.747 42.0432 145.277 40.8364 145.277 39.3369C145.277 37.8009 144.747 36.5758 143.686 35.6615C142.625 34.7472 141.199 34.2901 139.407 34.2901C137.615 34.2901 136.171 34.7472 135.073 35.6615C134.013 36.5758 133.483 37.8009 133.483 39.3369ZM134.58 22.7152C134.58 23.9952 135.019 25.0375 135.896 25.8421C136.811 26.6101 137.999 26.9941 139.462 26.9941C140.888 26.9941 142.04 26.6101 142.918 25.8421C143.796 25.0375 144.235 23.9952 144.235 22.7152C144.235 21.4352 143.796 20.4112 142.918 19.6432C142.04 18.8752 140.888 18.4912 139.462 18.4912C137.963 18.4912 136.774 18.8752 135.896 19.6432C135.019 20.4112 134.58 21.4352 134.58 22.7152ZM170.919 51.2958C168.249 51.2958 165.817 50.8204 163.623 49.8695C161.465 48.9186 159.747 47.5472 158.467 45.7552C157.187 43.9632 156.547 41.8786 156.547 39.5015C156.547 37.3438 157.15 35.4238 158.357 33.7415C159.6 32.0592 161.228 30.8706 163.239 30.1758C161.74 29.4444 160.533 28.3838 159.619 26.9941C158.704 25.6044 158.247 24.0684 158.247 22.3861C158.247 20.4844 158.777 18.7472 159.838 17.1746C160.899 15.5655 162.398 14.3038 164.336 13.3895C166.275 12.4752 168.469 12.0181 170.919 12.0181C173.369 12.0181 175.545 12.4752 177.447 13.3895C179.349 14.3038 180.83 15.5655 181.891 17.1746C182.951 18.7472 183.481 20.4844 183.481 22.3861C183.481 24.0684 183.024 25.6226 182.11 27.0489C181.196 28.4386 179.971 29.4809 178.435 30.1758C180.483 30.8341 182.11 32.0226 183.317 33.7415C184.56 35.4238 185.182 37.3438 185.182 39.5015C185.182 41.8786 184.542 43.9632 183.262 45.7552C181.982 47.5472 180.263 48.9186 178.105 49.8695C175.948 50.8204 173.552 51.2958 170.919 51.2958ZM164.94 39.3369C164.94 40.8364 165.47 42.0432 166.531 42.9575C167.628 43.8718 169.072 44.3289 170.864 44.3289C172.656 44.3289 174.083 43.8718 175.143 42.9575C176.204 42.0432 176.734 40.8364 176.734 39.3369C176.734 37.8009 176.204 36.5758 175.143 35.6615C174.083 34.7472 172.656 34.2901 170.864 34.2901C169.072 34.2901 167.628 34.7472 166.531 35.6615C165.47 36.5758 164.94 37.8009 164.94 39.3369ZM166.037 22.7152C166.037 23.9952 166.476 25.0375 167.353 25.8421C168.268 26.6101 169.456 26.9941 170.919 26.9941C172.345 26.9941 173.497 26.6101 174.375 25.8421C175.253 25.0375 175.692 23.9952 175.692 22.7152C175.692 21.4352 175.253 20.4112 174.375 19.6432C173.497 18.8752 172.345 18.4912 170.919 18.4912C169.42 18.4912 168.231 18.8752 167.353 19.6432C166.476 20.4112 166.037 21.4352 166.037 22.7152ZM217.023 12.4569H223.387L197.713 50.8569H191.35L217.023 12.4569ZM218.504 51.2958C215.761 51.2958 213.567 50.4181 211.921 48.6626C210.312 46.9072 209.508 44.5666 209.508 41.6409C209.508 38.7152 210.312 36.3746 211.921 34.6192C213.567 32.8638 215.761 31.9861 218.504 31.9861C221.211 31.9861 223.368 32.8638 224.977 34.6192C226.623 36.3746 227.446 38.7152 227.446 41.6409C227.446 44.5666 226.623 46.9072 224.977 48.6626C223.368 50.4181 221.211 51.2958 218.504 51.2958ZM215.432 41.6409C215.432 43.0306 215.688 44.1095 216.2 44.8775C216.749 45.6089 217.517 45.9746 218.504 45.9746C219.455 45.9746 220.187 45.6089 220.699 44.8775C221.211 44.1095 221.467 43.0306 221.467 41.6409C221.467 40.2512 221.211 39.1906 220.699 38.4592C220.187 37.6912 219.455 37.3072 218.504 37.3072C217.517 37.3072 216.749 37.6912 216.2 38.4592C215.688 39.1906 215.432 40.2512 215.432 41.6409ZM196.397 31.3278C193.654 31.3278 191.46 30.4501 189.814 28.6946C188.205 26.9392 187.4 24.5986 187.4 21.6729C187.4 18.7472 188.205 16.4066 189.814 14.6512C191.46 12.8958 193.654 12.0181 196.397 12.0181C199.103 12.0181 201.261 12.8958 202.87 14.6512C204.516 16.4066 205.339 18.7472 205.339 21.6729C205.339 24.5986 204.516 26.9392 202.87 28.6946C201.261 30.4501 199.103 31.3278 196.397 31.3278ZM193.325 21.6729C193.325 23.0626 193.581 24.1415 194.093 24.9095C194.641 25.6409 195.409 26.0066 196.397 26.0066C197.348 26.0066 198.079 25.6409 198.591 24.9095C199.103 24.1415 199.359 23.0626 199.359 21.6729C199.359 20.2832 199.103 19.2226 198.591 18.4912C198.079 17.7232 197.348 17.3392 196.397 17.3392C195.409 17.3392 194.641 17.7232 194.093 18.4912C193.581 19.2226 193.325 20.2832 193.325 21.6729Z" fill="white"/>
</svg>
