<svg width="323" height="105" viewBox="0 0 323 105" fill="none" xmlns="http://www.w3.org/2000/svg">
<path d="M116.281 97.2856H113.689V95.7222C113.346 96.2434 112.887 96.6616 112.311 96.9771C111.749 97.2925 111.111 97.4502 110.398 97.4502C109.259 97.4502 108.341 97.1074 107.641 96.4216C106.955 95.7359 106.613 94.8308 106.613 93.7062V86.9176H109.205V93.0891C109.205 93.7062 109.383 94.2068 109.739 94.5908C110.096 94.9611 110.576 95.1462 111.179 95.1462C111.975 95.1462 112.592 94.8239 113.031 94.1794C113.47 93.5348 113.689 92.6296 113.689 91.4639V86.9176H116.281V97.2856ZM118.444 82.7211H121.036V97.2856H118.444V82.7211ZM129.354 97.1828C128.861 97.3611 128.305 97.4502 127.688 97.4502C126.591 97.4502 125.706 97.1485 125.034 96.5451C124.362 95.9416 124.026 95.0571 124.026 93.8914V89.0982H122.278V86.9176H124.026V83.8731H126.618V86.9176H129.231V89.0982H126.618V93.6445C126.618 94.1245 126.735 94.5016 126.968 94.7759C127.215 95.0365 127.544 95.1668 127.956 95.1668C128.436 95.1668 128.84 95.0845 129.169 94.9199L129.354 97.1828ZM130.796 86.9176H133.388V97.2856H130.796V86.9176ZM132.092 85.3336C131.626 85.3336 131.242 85.1828 130.94 84.8811C130.638 84.5656 130.487 84.1816 130.487 83.7291C130.487 83.2765 130.638 82.8994 130.94 82.5976C131.255 82.2959 131.639 82.1451 132.092 82.1451C132.558 82.1451 132.949 82.3028 133.265 82.6182C133.58 82.9199 133.738 83.2902 133.738 83.7291C133.738 84.1816 133.58 84.5656 133.265 84.8811C132.949 85.1828 132.558 85.3336 132.092 85.3336ZM135.556 86.9176H138.148V88.5016C138.45 87.9531 138.847 87.5279 139.341 87.2262C139.848 86.9108 140.445 86.7531 141.131 86.7531C141.954 86.7531 142.639 86.9245 143.188 87.2674C143.736 87.5965 144.127 88.0765 144.36 88.7074C144.662 88.1451 145.115 87.6788 145.718 87.3085C146.322 86.9382 147.014 86.7531 147.796 86.7531C148.907 86.7531 149.798 87.0822 150.47 87.7405C151.156 88.3851 151.499 89.2216 151.499 90.2502V97.2856H148.907V90.9702C148.907 90.3394 148.742 89.8456 148.413 89.4891C148.084 89.1325 147.618 88.9542 147.014 88.9542C146.328 88.9542 145.787 89.2285 145.389 89.7771C145.005 90.3256 144.813 91.0662 144.813 91.9988V97.2856H142.221V90.9702C142.221 90.3394 142.056 89.8456 141.727 89.4891C141.412 89.1325 140.959 88.9542 140.37 88.9542C139.67 88.9542 139.122 89.2354 138.724 89.7976C138.34 90.3462 138.148 91.0868 138.148 92.0194V97.2856H135.556V86.9176ZM153.675 86.9176H156.267V97.2856H153.675V86.9176ZM154.971 85.3336C154.505 85.3336 154.121 85.1828 153.819 84.8811C153.517 84.5656 153.366 84.1816 153.366 83.7291C153.366 83.2765 153.517 82.8994 153.819 82.5976C154.134 82.2959 154.518 82.1451 154.971 82.1451C155.437 82.1451 155.828 82.3028 156.144 82.6182C156.459 82.9199 156.617 83.2902 156.617 83.7291C156.617 84.1816 156.459 84.5656 156.144 84.8811C155.828 85.1828 155.437 85.3336 154.971 85.3336ZM167.765 97.4502C166.353 97.4502 165.16 97.0868 164.186 96.3599C163.212 95.6331 162.629 94.6662 162.437 93.4594L164.968 92.9862C165.105 93.6171 165.413 94.1176 165.893 94.4879C166.373 94.8445 166.963 95.0228 167.662 95.0228C168.417 95.0228 169.027 94.7896 169.493 94.3234C169.96 93.8571 170.193 93.2399 170.193 92.4719C170.193 91.6765 169.946 91.0525 169.452 90.5999C168.972 90.1336 168.321 89.9005 167.498 89.9005C166.36 89.9005 165.461 90.3874 164.803 91.3611L162.787 90.9291L163.98 82.8856H171.921V85.2925H166.017L165.482 88.7279C165.825 88.4262 166.236 88.1794 166.716 87.9874C167.21 87.7954 167.704 87.6994 168.197 87.6994C169.13 87.6994 169.96 87.8982 170.686 88.2959C171.413 88.6936 171.976 89.2559 172.373 89.9828C172.785 90.7096 172.99 91.5394 172.99 92.4719C172.99 93.4594 172.771 94.3302 172.332 95.0845C171.907 95.8388 171.297 96.4216 170.501 96.8331C169.72 97.2445 168.808 97.4502 167.765 97.4502ZM185.291 90.6205C185.291 90.0308 185.106 89.5714 184.736 89.2422C184.366 88.8994 183.865 88.7279 183.234 88.7279C182.672 88.7279 182.199 88.8925 181.815 89.2216C181.444 89.5508 181.232 89.9896 181.177 90.5382L178.873 90.1268C179.038 89.1119 179.524 88.2959 180.334 87.6788C181.156 87.0616 182.123 86.7531 183.234 86.7531C184.619 86.7531 185.723 87.1234 186.546 87.8639C187.383 88.5908 187.801 89.6262 187.801 90.9702V97.2856H185.291V95.7839C185.003 96.2914 184.571 96.6959 183.995 96.9976C183.433 97.2994 182.83 97.4502 182.185 97.4502C181.513 97.4502 180.916 97.3199 180.395 97.0594C179.874 96.7851 179.463 96.4148 179.161 95.9485C178.873 95.4822 178.729 94.9542 178.729 94.3645C178.729 93.3496 179.113 92.5611 179.881 91.9988C180.649 91.4365 181.808 91.0731 183.358 90.9085L185.291 90.7234V90.6205ZM181.239 94.2822C181.239 94.6525 181.376 94.9542 181.65 95.1874C181.924 95.4205 182.295 95.5371 182.761 95.5371C183.543 95.5371 184.16 95.2765 184.612 94.7554C185.065 94.2342 185.291 93.5828 185.291 92.8011V92.5748L183.316 92.8011C182.644 92.8834 182.13 93.0548 181.774 93.3154C181.417 93.5759 181.239 93.8982 181.239 94.2822ZM189.99 86.9176H192.582V88.4811C192.925 87.9599 193.377 87.5416 193.939 87.2262C194.515 86.9108 195.16 86.7531 195.873 86.7531C197.011 86.7531 197.923 87.0959 198.609 87.7816C199.309 88.4674 199.658 89.3725 199.658 90.4971V97.2856H197.066V91.1142C197.066 90.4971 196.888 90.0034 196.531 89.6331C196.175 89.2491 195.695 89.0571 195.091 89.0571C194.296 89.0571 193.679 89.3794 193.24 90.0239C192.801 90.6685 192.582 91.5736 192.582 92.7394V97.2856H189.99V86.9176ZM201.821 86.9176H204.413V88.4811C204.756 87.9599 205.208 87.5416 205.771 87.2262C206.347 86.9108 206.991 86.7531 207.704 86.7531C208.843 86.7531 209.755 87.0959 210.44 87.7816C211.14 88.4674 211.49 89.3725 211.49 90.4971V97.2856H208.898V91.1142C208.898 90.4971 208.719 90.0034 208.363 89.6331C208.006 89.2491 207.526 89.0571 206.923 89.0571C206.127 89.0571 205.51 89.3794 205.071 90.0239C204.632 90.6685 204.413 91.5736 204.413 92.7394V97.2856H201.821V86.9176ZM213.652 86.9176H216.244V97.2856H213.652V86.9176ZM214.948 85.3336C214.482 85.3336 214.098 85.1828 213.796 84.8811C213.495 84.5656 213.344 84.1816 213.344 83.7291C213.344 83.2765 213.495 82.8994 213.796 82.5976C214.112 82.2959 214.496 82.1451 214.948 82.1451C215.415 82.1451 215.805 82.3028 216.121 82.6182C216.436 82.9199 216.594 83.2902 216.594 83.7291C216.594 84.1816 216.436 84.5656 216.121 84.8811C215.805 85.1828 215.415 85.3336 214.948 85.3336Z" fill="#212328"/>
<path d="M138.204 36.7038H128.055V46.8524H121.198V36.6489H110.995V29.8466H121.198V19.6432H128V29.8466H138.204V36.7038ZM155.216 51.2958C152.546 51.2958 150.151 50.8204 148.03 49.8695C145.908 48.9186 144.19 47.5838 142.873 45.8649C141.556 44.1461 140.788 42.1529 140.569 39.8855L148.414 38.5689C148.706 40.1781 149.474 41.4581 150.718 42.4089C151.961 43.3598 153.479 43.8352 155.271 43.8352C157.099 43.8352 158.58 43.3232 159.714 42.2992C160.884 41.2752 161.47 39.9221 161.47 38.2398C161.47 36.5575 160.903 35.2044 159.769 34.1804C158.672 33.1564 157.209 32.6444 155.38 32.6444C154.722 32.6444 153.972 32.7724 153.131 33.0284C152.327 33.2478 151.614 33.5586 150.992 33.9609L147.7 28.2558L157.41 19.8626H141.666V12.4569H167.614V19.3689L158.288 27.2135C160.628 27.1769 162.695 27.6158 164.487 28.5301C166.279 29.4444 167.668 30.7609 168.656 32.4798C169.643 34.1621 170.137 36.1735 170.137 38.5141C170.137 41.0375 169.515 43.2684 168.272 45.2066C167.028 47.1449 165.273 48.6444 163.006 49.7049C160.775 50.7655 158.178 51.2958 155.216 51.2958ZM202.019 12.4569H208.382L182.709 50.8569H176.346L202.019 12.4569ZM203.5 51.2958C200.757 51.2958 198.563 50.4181 196.917 48.6626C195.308 46.9072 194.503 44.5666 194.503 41.6409C194.503 38.7152 195.308 36.3746 196.917 34.6192C198.563 32.8638 200.757 31.9861 203.5 31.9861C206.206 31.9861 208.364 32.8638 209.973 34.6192C211.619 36.3746 212.442 38.7152 212.442 41.6409C212.442 44.5666 211.619 46.9072 209.973 48.6626C208.364 50.4181 206.206 51.2958 203.5 51.2958ZM200.428 41.6409C200.428 43.0306 200.684 44.1095 201.196 44.8775C201.745 45.6089 202.513 45.9746 203.5 45.9746C204.451 45.9746 205.182 45.6089 205.694 44.8775C206.206 44.1095 206.462 43.0306 206.462 41.6409C206.462 40.2512 206.206 39.1906 205.694 38.4592C205.182 37.6912 204.451 37.3072 203.5 37.3072C202.513 37.3072 201.745 37.6912 201.196 38.4592C200.684 39.1906 200.428 40.2512 200.428 41.6409ZM181.393 31.3278C178.65 31.3278 176.455 30.4501 174.81 28.6946C173.201 26.9392 172.396 24.5986 172.396 21.6729C172.396 18.7472 173.201 16.4066 174.81 14.6512C176.455 12.8958 178.65 12.0181 181.393 12.0181C184.099 12.0181 186.257 12.8958 187.866 14.6512C189.511 16.4066 190.334 18.7472 190.334 21.6729C190.334 24.5986 189.511 26.9392 187.866 28.6946C186.257 30.4501 184.099 31.3278 181.393 31.3278ZM178.321 21.6729C178.321 23.0626 178.577 24.1415 179.089 24.9095C179.637 25.6409 180.405 26.0066 181.393 26.0066C182.343 26.0066 183.075 25.6409 183.587 24.9095C184.099 24.1415 184.355 23.0626 184.355 21.6729C184.355 20.2832 184.099 19.2226 183.587 18.4912C183.075 17.7232 182.343 17.3392 181.393 17.3392C180.405 17.3392 179.637 17.7232 179.089 18.4912C178.577 19.2226 178.321 20.2832 178.321 21.6729Z" fill="white"/>
</svg>
