<svg width="118" height="22" viewBox="0 0 118 22" fill="none" xmlns="http://www.w3.org/2000/svg">
<g clip-path="url(#clip0_3451_2850)">
<path d="M10.2838 21.504C8.24944 21.504 6.2608 20.9008 4.56933 19.7706C2.87785 18.6404 1.55951 17.034 0.781005 15.1545C0.0025035 13.275 -0.201188 11.2069 0.195689 9.21169C0.592565 7.21646 1.57218 5.38372 3.01067 3.94524C4.44915 2.50675 6.28189 1.52714 8.27712 1.13026C10.2724 0.733382 12.3405 0.937074 14.2199 1.71557C16.0994 2.49408 17.7058 3.81242 18.836 5.5039C19.9662 7.19538 20.5695 9.18401 20.5695 11.2183C20.5695 13.9463 19.4858 16.5625 17.5569 18.4914C15.6279 20.4204 13.0117 21.504 10.2838 21.504" fill="#00D372"/>
<path d="M27.1582 17.6787L28.6288 14.3598L25.6875 7.75293H27.7891L29.664 12.2893L31.5257 7.75293H33.6362L29.242 17.6787H27.1582Z" fill="black"/>
<path d="M33.1095 11.2535C33.1033 10.5235 33.3142 9.80816 33.7154 9.19827C34.1165 8.58837 34.6899 8.11144 35.3626 7.82801C36.0353 7.54459 36.7771 7.46745 37.4938 7.6064C38.2104 7.74535 38.8696 8.09412 39.3877 8.60843C39.9057 9.12273 40.2593 9.77938 40.4035 10.495C40.5476 11.2106 40.4759 11.9529 40.1973 12.6277C39.9188 13.3025 39.4461 13.8793 38.8391 14.2849C38.2322 14.6904 37.5184 14.9065 36.7884 14.9057C36.3064 14.9098 35.8283 14.8183 35.3818 14.6366C34.9354 14.4548 34.5294 14.1864 34.1873 13.8468C33.8452 13.5072 33.5738 13.1031 33.3888 12.658C33.2038 12.2129 33.1089 11.7355 33.1095 11.2535V11.2535ZM38.5256 11.2535C38.5375 11.0171 38.5013 10.7807 38.419 10.5587C38.3368 10.3367 38.2103 10.1338 38.0472 9.96225C37.884 9.7907 37.6877 9.6541 37.4702 9.56076C37.2527 9.46742 37.0184 9.41929 36.7817 9.41929C36.545 9.41929 36.3107 9.46742 36.0932 9.56076C35.8757 9.6541 35.6794 9.7907 35.5163 9.96225C35.3531 10.1338 35.2266 10.3367 35.1444 10.5587C35.0621 10.7807 35.0259 11.0171 35.0378 11.2535C35.0259 11.4899 35.0621 11.7263 35.1444 11.9482C35.2266 12.1702 35.3531 12.3731 35.5163 12.5447C35.6794 12.7162 35.8757 12.8528 36.0932 12.9462C36.3107 13.0395 36.545 13.0876 36.7817 13.0876C37.0184 13.0876 37.2527 13.0395 37.4702 12.9462C37.6877 12.8528 37.884 12.7162 38.0472 12.5447C38.2103 12.3731 38.3368 12.1702 38.419 11.9482C38.5013 11.7263 38.5375 11.4899 38.5256 11.2535" fill="black"/>
<path d="M40.998 11.8139V7.75293H42.9175V11.4896C42.9175 12.5559 43.2685 13.1557 44.1082 13.1557C44.9479 13.1557 45.5478 12.5292 45.5478 11.1697V7.75293H47.4672V14.7508H45.5478V13.9555C45.3339 14.2629 45.0458 14.5112 44.7102 14.6775C44.3746 14.8437 44.0025 14.9224 43.6283 14.9063C41.9489 14.9063 40.998 13.6622 40.998 11.7961" fill="black"/>
<path d="M48.543 7.75224H50.4624V8.55199C50.6919 8.24146 50.9944 7.99226 51.3431 7.82643C51.6918 7.66059 52.076 7.58323 52.4618 7.60117C54.1546 7.60117 55.1632 8.8319 55.1632 10.6491V14.7501H53.2482V10.9735C53.2482 9.96489 52.8039 9.3473 52.013 9.3473C51.1244 9.3473 50.4624 9.99155 50.4624 11.3378V14.7501H48.543V7.75224Z" fill="black"/>
<path d="M55.9857 15.1859H57.8607C57.9651 15.514 58.1794 15.7961 58.4675 15.9847C58.7557 16.1732 59.1 16.2568 59.4424 16.2211C59.6587 16.2301 59.8744 16.1929 60.0751 16.1121C60.2759 16.0312 60.4572 15.9085 60.6068 15.7521C60.7564 15.5958 60.8711 15.4093 60.943 15.2052C61.015 15.0011 61.0427 14.784 61.0242 14.5683V13.7463C60.7783 14.0444 60.4675 14.2822 60.1156 14.4416C59.7636 14.601 59.3799 14.6778 58.9937 14.6661C58.0932 14.6348 57.242 14.2477 56.6265 13.5897C56.011 12.9317 55.6815 12.0565 55.7103 11.156C55.6906 10.7052 55.7608 10.2549 55.9166 9.83134C56.0724 9.40779 56.3107 9.01941 56.6179 8.68873C56.925 8.35806 57.2947 8.09167 57.7056 7.90505C58.1165 7.71842 58.5604 7.61527 59.0115 7.60157C59.3999 7.58604 59.7866 7.66292 60.1395 7.8259C60.4925 7.98887 60.8018 8.23329 61.0419 8.53906V7.75264H62.9613V14.3195C62.9613 16.852 61.2374 17.8162 59.4069 17.8162C57.4164 17.8162 56.1457 16.6832 55.9902 15.1859H55.9857ZM61.1974 11.156C61.1974 10.8045 61.0932 10.4609 60.8979 10.1687C60.7026 9.87639 60.4251 9.6486 60.1003 9.51408C59.7756 9.37957 59.4183 9.34437 59.0735 9.41295C58.7288 9.48152 58.4121 9.65079 58.1635 9.89934C57.915 10.1479 57.7457 10.4646 57.6771 10.8093C57.6086 11.1541 57.6438 11.5114 57.7783 11.8361C57.9128 12.1609 58.1406 12.4385 58.4328 12.6337C58.7251 12.829 59.0687 12.9333 59.4202 12.9333C59.6549 12.9381 59.8882 12.8954 60.106 12.8078C60.3238 12.7202 60.5217 12.5895 60.6877 12.4235C60.8537 12.2575 60.9844 12.0596 61.072 11.8418C61.1596 11.624 61.2023 11.3907 61.1974 11.156" fill="black"/>
<path d="M66.1133 17.6781V7.75233H68.0327V8.53875C68.2772 8.23798 68.5873 7.99714 68.9393 7.83465C69.2912 7.67216 69.6756 7.59233 70.0632 7.60126C71.9248 7.60126 73.3511 9.28074 73.3511 11.2535C73.3511 13.2262 71.9248 14.9057 70.0632 14.9057C69.6756 14.9146 69.2912 14.8348 68.9393 14.6723C68.5873 14.5098 68.2772 14.269 68.0327 13.9682V17.6781H66.1133ZM71.405 11.2535C71.405 10.1471 70.7074 9.34739 69.6278 9.34739C68.5481 9.34739 67.8505 10.1471 67.8505 11.2535C67.8505 12.3598 68.5525 13.1551 69.6278 13.1551C70.703 13.1551 71.405 12.3598 71.405 11.2535Z" fill="black"/>
<path d="M75.8993 4.25586H73.9844V14.7548H75.8993V4.25586Z" fill="black"/>
<path d="M76.5293 11.2543C76.5293 9.28157 77.9555 7.60209 79.8172 7.60209C80.2026 7.5942 80.5848 7.67458 80.9344 7.83707C81.284 7.99956 81.5918 8.23985 81.8343 8.53958V7.75316H83.7493V14.751H81.8343V13.969C81.5918 14.2687 81.284 14.509 80.9344 14.6715C80.5848 14.834 80.2026 14.9144 79.8172 14.9065C77.9555 14.9065 76.5293 13.227 76.5293 11.2543ZM81.9854 11.2543C81.9854 10.148 81.2878 9.34822 80.2082 9.34822C79.1285 9.34822 78.4309 10.148 78.4309 11.2543C78.4309 12.3606 79.1285 13.1559 80.2082 13.1559C81.2878 13.1559 81.9854 12.3606 81.9854 11.2543Z" fill="black"/>
<path d="M85.558 12.3022V9.43199H84.1406V7.75251H85.558V5.82422H87.4729V7.76584H89.4457V9.44532H87.4729V11.9379C87.4729 12.791 87.8239 13.1286 88.6637 13.1286C88.9295 13.1321 89.194 13.09 89.4457 13.0042V14.697C89.0501 14.8101 88.6394 14.8611 88.2283 14.8481C86.7443 14.8481 85.5624 14.0395 85.5624 12.3155" fill="black"/>
<path d="M90.7923 9.43155H89.375V7.75207H90.7923V6.86345C90.7717 6.50797 90.8265 6.15213 90.9531 5.81934C91.0798 5.48654 91.2755 5.18431 91.5273 4.93252C91.779 4.68073 92.0813 4.48508 92.4141 4.35841C92.7469 4.23175 93.1027 4.17695 93.4582 4.19761C93.8696 4.18577 94.2803 4.23824 94.6756 4.35312V6.04593C94.4248 5.95646 94.1599 5.91281 93.8936 5.91708C93.0539 5.91708 92.7029 6.25475 92.7029 7.10782V7.77873H94.6756V9.45821H92.7029V14.7899H90.7879L90.7923 9.43155Z" fill="black"/>
<path d="M94.3869 11.2535C94.3807 10.5237 94.5915 9.80853 94.9924 9.19873C95.3934 8.58894 95.9665 8.112 96.6389 7.82845C97.3114 7.54489 98.053 7.4675 98.7695 7.60609C99.486 7.74468 100.145 8.093 100.663 8.60686C101.182 9.12072 101.536 9.77695 101.68 10.4923C101.825 11.2076 101.754 11.9498 101.476 12.6246C101.198 13.2995 100.726 13.8766 100.12 14.2827C99.5133 14.6888 98.8 14.9056 98.0702 14.9057C97.5879 14.9098 97.1097 14.8183 96.663 14.6366C96.2163 14.4549 95.81 14.1866 95.4675 13.847C95.1251 13.5075 94.8533 13.1035 94.6678 12.6583C94.4823 12.2132 94.3868 11.7357 94.3869 11.2535V11.2535ZM99.803 11.2535C99.8201 11.0143 99.7877 10.7741 99.7079 10.548C99.6281 10.3219 99.5026 10.1146 99.3392 9.93911C99.1758 9.76361 98.978 9.62365 98.7582 9.52795C98.5383 9.43225 98.3011 9.38286 98.0613 9.38286C97.8215 9.38286 97.5843 9.43225 97.3644 9.52795C97.1445 9.62365 96.9467 9.76361 96.7833 9.93911C96.6199 10.1146 96.4944 10.3219 96.4146 10.548C96.3348 10.7741 96.3025 11.0143 96.3196 11.2535C96.3025 11.4927 96.3348 11.7328 96.4146 11.9589C96.4944 12.1851 96.6199 12.3923 96.7833 12.5678C96.9467 12.7433 97.1445 12.8833 97.3644 12.979C97.5843 13.0747 97.8215 13.1241 98.0613 13.1241C98.3011 13.1241 98.5383 13.0747 98.7582 12.979C98.978 12.8833 99.1758 12.7433 99.3392 12.5678C99.5026 12.3923 99.6281 12.1851 99.7079 11.9589C99.7877 11.7328 99.8201 11.4927 99.803 11.2535" fill="black"/>
<path d="M102.367 7.75258H104.282V8.87223C104.416 8.51942 104.654 8.21548 104.964 8.00052C105.274 7.78556 105.642 7.66967 106.02 7.66816C106.237 7.66533 106.454 7.69376 106.664 7.75258V9.69864C106.379 9.59657 106.078 9.54543 105.775 9.54758C104.887 9.54758 104.265 10.2451 104.265 11.4092V14.7504H102.35L102.367 7.75258Z" fill="black"/>
<path d="M115.94 11.0141C115.94 9.96554 115.62 9.34795 114.847 9.34795C114.074 9.34795 113.492 9.95221 113.447 11.2407V14.7507H111.523V11.0141C111.523 9.96554 111.199 9.34795 110.43 9.34795C109.591 9.34795 109.031 9.9922 109.031 11.3384V14.7507H107.111V7.75289H109.031V8.55264C109.238 8.25058 109.518 8.00531 109.845 7.83923C110.172 7.67314 110.535 7.59153 110.901 7.60183C111.348 7.58728 111.789 7.70087 112.174 7.92919C112.558 8.15751 112.869 8.49102 113.069 8.89032C113.286 8.50359 113.602 8.18088 113.983 7.95468C114.364 7.72848 114.799 7.60678 115.242 7.60183C116.922 7.60183 117.859 8.78813 117.859 10.712V14.7685H115.94V11.0141Z" fill="black"/>
<path d="M13.8985 7.6416L10.2951 11.2449L8.0958 9.04561L6.65625 10.4852L10.2951 14.124L11.7347 12.6845L12.4545 11.9647L13.1742 11.2449L13.8985 10.5207L15.338 9.08116L13.8985 7.6416Z" fill="white"/>
<path d="M8.13258 13.4084L6.69336 14.8477L8.13258 16.2869L9.5718 14.8477L8.13258 13.4084Z" fill="white"/>
</g>
<defs>
<clipPath id="clip0_3451_2850">
<rect width="117.882" height="20.5714" fill="white" transform="translate(0 0.9375)"/>
</clipPath>
</defs>
</svg>
